<svg width="29" height="28" viewBox="0 0 29 28" fill="none" xmlns="http://www.w3.org/2000/svg">
<path d="M10 6.70831C9.52167 6.70831 9.125 6.31165 9.125 5.83331V2.33331C9.125 1.85498 9.52167 1.45831 10 1.45831C10.4783 1.45831 10.875 1.85498 10.875 2.33331V5.83331C10.875 6.31165 10.4783 6.70831 10 6.70831Z" fill="#011F46"/>
<path d="M19.334 6.70831C18.8557 6.70831 18.459 6.31165 18.459 5.83331V2.33331C18.459 1.85498 18.8557 1.45831 19.334 1.45831C19.8123 1.45831 20.209 1.85498 20.209 2.33331V5.83331C20.209 6.31165 19.8123 6.70831 19.334 6.70831Z" fill="#011F46"/>
<path d="M10.5837 16.9167C10.432 16.9167 10.2803 16.8817 10.1403 16.8234C9.98866 16.7651 9.87199 16.6834 9.75533 16.5784C9.54533 16.3567 9.41699 16.065 9.41699 15.75C9.41699 15.5984 9.45199 15.4467 9.51033 15.3067C9.56866 15.1667 9.65033 15.0384 9.75533 14.9217C9.87199 14.8167 9.98866 14.735 10.1403 14.6767C10.5603 14.5017 11.0853 14.595 11.412 14.9217C11.622 15.1434 11.7503 15.4467 11.7503 15.75C11.7503 15.82 11.7387 15.9017 11.727 15.9834C11.7153 16.0534 11.692 16.1234 11.657 16.1934C11.6337 16.2634 11.5987 16.3334 11.552 16.4034C11.517 16.4617 11.4587 16.52 11.412 16.5784C11.1903 16.7884 10.887 16.9167 10.5837 16.9167Z" fill="#011F46"/>
<path d="M14.6676 16.9167C14.516 16.9167 14.3643 16.8817 14.2243 16.8234C14.0726 16.7651 13.956 16.6834 13.8393 16.5784C13.6293 16.3567 13.501 16.065 13.501 15.75C13.501 15.5984 13.536 15.4467 13.5943 15.3067C13.6526 15.1667 13.7343 15.0384 13.8393 14.9217C13.956 14.8167 14.0726 14.735 14.2243 14.6767C14.6443 14.49 15.1693 14.595 15.496 14.9217C15.706 15.1434 15.8343 15.4467 15.8343 15.75C15.8343 15.82 15.8226 15.9017 15.811 15.9834C15.7993 16.0534 15.776 16.1234 15.741 16.1934C15.7176 16.2634 15.6826 16.3334 15.636 16.4034C15.601 16.4617 15.5426 16.52 15.496 16.5784C15.2743 16.7884 14.971 16.9167 14.6676 16.9167Z" fill="#011F46"/>
<path d="M18.7497 16.9167C18.598 16.9167 18.4463 16.8817 18.3063 16.8234C18.1547 16.7651 18.038 16.6834 17.9213 16.5784C17.8747 16.52 17.828 16.4617 17.7813 16.4034C17.7347 16.3334 17.6997 16.2634 17.6763 16.1934C17.6413 16.1234 17.618 16.0534 17.6063 15.9834C17.5947 15.9017 17.583 15.82 17.583 15.75C17.583 15.4467 17.7113 15.1434 17.9213 14.9217C18.038 14.8167 18.1547 14.735 18.3063 14.6767C18.738 14.49 19.2513 14.595 19.578 14.9217C19.788 15.1434 19.9163 15.4467 19.9163 15.75C19.9163 15.82 19.9047 15.9017 19.893 15.9834C19.8813 16.0534 19.858 16.1234 19.823 16.1934C19.7997 16.2634 19.7647 16.3334 19.718 16.4034C19.683 16.4617 19.6247 16.52 19.578 16.5784C19.3563 16.7884 19.053 16.9167 18.7497 16.9167Z" fill="#011F46"/>
<path d="M10.5837 21C10.432 21 10.2803 20.965 10.1403 20.9067C10.0003 20.8484 9.87199 20.7667 9.75533 20.6617C9.54533 20.44 9.41699 20.1367 9.41699 19.8333C9.41699 19.6817 9.45199 19.53 9.51033 19.39C9.56866 19.2383 9.65033 19.11 9.75533 19.005C10.187 18.5734 10.9803 18.5734 11.412 19.005C11.622 19.2267 11.7503 19.53 11.7503 19.8333C11.7503 20.1367 11.622 20.44 11.412 20.6617C11.1903 20.8717 10.887 21 10.5837 21Z" fill="#011F46"/>
<path d="M14.6676 21C14.3643 21 14.061 20.8717 13.8393 20.6617C13.6293 20.44 13.501 20.1367 13.501 19.8333C13.501 19.6817 13.536 19.53 13.5943 19.39C13.6526 19.2383 13.7343 19.11 13.8393 19.005C14.271 18.5734 15.0643 18.5734 15.496 19.005C15.601 19.11 15.6826 19.2383 15.741 19.39C15.7993 19.53 15.8343 19.6817 15.8343 19.8333C15.8343 20.1367 15.706 20.44 15.496 20.6617C15.2743 20.8717 14.971 21 14.6676 21Z" fill="#011F46"/>
<path d="M18.7497 21C18.4463 21 18.143 20.8717 17.9213 20.6617C17.8163 20.5567 17.7347 20.4284 17.6763 20.2767C17.618 20.1367 17.583 19.985 17.583 19.8334C17.583 19.6817 17.618 19.53 17.6763 19.39C17.7347 19.2383 17.8163 19.11 17.9213 19.005C18.1897 18.7367 18.598 18.6083 18.9713 18.69C19.053 18.7017 19.123 18.725 19.193 18.76C19.263 18.7833 19.333 18.8184 19.403 18.865C19.4613 18.9 19.5197 18.9584 19.578 19.005C19.788 19.2267 19.9163 19.53 19.9163 19.8334C19.9163 20.1367 19.788 20.44 19.578 20.6617C19.3563 20.8717 19.053 21 18.7497 21Z" fill="#011F46"/>
<path d="M24.5833 11.4799H4.75C4.27167 11.4799 3.875 11.0833 3.875 10.6049C3.875 10.1266 4.27167 9.72992 4.75 9.72992H24.5833C25.0617 9.72992 25.4583 10.1266 25.4583 10.6049C25.4583 11.0833 25.0617 11.4799 24.5833 11.4799Z" fill="#011F46"/>
<path d="M19.3337 26.5416H10.0003C5.74199 26.5416 3.29199 24.0916 3.29199 19.8333V9.91665C3.29199 5.65831 5.74199 3.20831 10.0003 3.20831H19.3337C23.592 3.20831 26.042 5.65831 26.042 9.91665V19.8333C26.042 24.0916 23.592 26.5416 19.3337 26.5416ZM10.0003 4.95831C6.66366 4.95831 5.04199 6.57998 5.04199 9.91665V19.8333C5.04199 23.17 6.66366 24.7916 10.0003 24.7916H19.3337C22.6703 24.7916 24.292 23.17 24.292 19.8333V9.91665C24.292 6.57998 22.6703 4.95831 19.3337 4.95831H10.0003Z" fill="#011F46"/>
</svg>
