<svg width="29" height="28" viewBox="0 0 29 28" fill="none" xmlns="http://www.w3.org/2000/svg">
<path d="M26.3333 10.7917H3C2.52167 10.7917 2.125 10.395 2.125 9.91669C2.125 9.43835 2.52167 9.04169 3 9.04169H26.3333C26.8117 9.04169 27.2083 9.43835 27.2083 9.91669C27.2083 10.395 26.8117 10.7917 26.3333 10.7917Z" fill="#011F46"/>
<path d="M10.0013 20.1249H7.66797C7.18964 20.1249 6.79297 19.7283 6.79297 19.2499C6.79297 18.7716 7.18964 18.3749 7.66797 18.3749H10.0013C10.4796 18.3749 10.8763 18.7716 10.8763 19.2499C10.8763 19.7283 10.4796 20.1249 10.0013 20.1249Z" fill="#011F46"/>
<path d="M17.5837 20.1249H12.917C12.4387 20.1249 12.042 19.7283 12.042 19.2499C12.042 18.7716 12.4387 18.3749 12.917 18.3749H17.5837C18.062 18.3749 18.4587 18.7716 18.4587 19.2499C18.4587 19.7283 18.062 20.1249 17.5837 20.1249Z" fill="#011F46"/>
<path d="M21.1533 24.7916H8.18C3.53667 24.7916 2.125 23.3916 2.125 18.795V9.20498C2.125 4.60831 3.53667 3.20831 8.18 3.20831H21.1417C25.785 3.20831 27.1967 4.60831 27.1967 9.20498V18.7833C27.2083 23.3916 25.7967 24.7916 21.1533 24.7916ZM8.18 4.95831C4.51667 4.95831 3.875 5.58831 3.875 9.20498V18.7833C3.875 22.4 4.51667 23.03 8.18 23.03H21.1417C24.805 23.03 25.4467 22.4 25.4467 18.7833V9.20498C25.4467 5.58831 24.805 4.95831 21.1417 4.95831H8.18Z" fill="#011F46"/>
</svg>
