<svg width="30" height="31" viewBox="0 0 30 31" fill="none" xmlns="http://www.w3.org/2000/svg">
<path id="Vector" d="M15.0413 11.727H17.958V7.35197H22.333V4.4353H17.958V0.0603027H15.0413V4.4353H10.6663V7.35197H15.0413M9.20801 24.852C7.60384 24.852 6.29134 26.1645 6.29134 27.7686C6.29134 29.3728 7.60384 30.6853 9.20801 30.6853C10.8122 30.6853 12.1247 29.3728 12.1247 27.7686C12.1247 26.1645 10.8122 24.852 9.20801 24.852ZM23.7913 24.852C22.1872 24.852 20.8747 26.1645 20.8747 27.7686C20.8747 29.3728 22.1872 30.6853 23.7913 30.6853C25.3955 30.6853 26.708 29.3728 26.708 27.7686C26.708 26.1645 25.3955 24.852 23.7913 24.852ZM9.49967 20.1853V20.0395L10.8122 17.5603H21.6038C22.6247 17.5603 23.6455 16.977 24.083 16.102L29.7705 5.89364L27.2913 4.4353L21.6038 14.6436H11.3955L5.27051 1.51864H0.458008V4.4353H3.37467L8.62467 15.5186L6.58301 19.0186C6.43717 19.4561 6.29134 19.8936 6.29134 20.477C6.29134 22.0811 7.60384 23.3936 9.20801 23.3936H26.708V20.477H9.79134C9.64551 20.477 9.49967 20.3311 9.49967 20.1853Z" fill="#071B34"/>
</svg>
