<svg width="29" height="28" viewBox="0 0 29 28" fill="none" xmlns="http://www.w3.org/2000/svg">
<g id="vuesax/outline/diagram">
<g id="diagram">
<path id="Vector" d="M26.1663 26.5417H6.33301C3.91801 26.5417 1.95801 24.5817 1.95801 22.1667V2.33337C1.95801 1.85504 2.35467 1.45837 2.83301 1.45837C3.31134 1.45837 3.70801 1.85504 3.70801 2.33337V22.1667C3.70801 23.6134 4.88634 24.7917 6.33301 24.7917H26.1663C26.6447 24.7917 27.0413 25.1884 27.0413 25.6667C27.0413 26.145 26.6447 26.5417 26.1663 26.5417Z" fill="#3065B5"/>
<path id="Vector_2" d="M6.3328 20.7083C6.13447 20.7083 5.92447 20.6383 5.76113 20.4983C5.39947 20.1833 5.3528 19.635 5.6678 19.2616L11.0228 13.0083C11.6061 12.3316 12.4461 11.9233 13.3328 11.8883C14.2195 11.865 15.0945 12.1916 15.7245 12.8216L16.8328 13.93C17.1245 14.2216 17.5095 14.3616 17.9178 14.3616C18.3261 14.35 18.6995 14.1633 18.9678 13.8483L24.3228 7.59498C24.6378 7.23331 25.1861 7.18662 25.5595 7.50162C25.9211 7.81662 25.9678 8.36495 25.6528 8.73829L20.2978 14.9916C19.7145 15.6683 18.8745 16.0766 17.9878 16.1116C17.1011 16.135 16.2261 15.8083 15.5961 15.1783L14.4995 14.07C14.2078 13.7783 13.8228 13.6266 13.4145 13.6383C13.0061 13.65 12.6328 13.8366 12.3645 14.1516L7.00947 20.405C6.8228 20.6033 6.5778 20.7083 6.3328 20.7083Z" fill="#3065B5"/>
</g>
</g>
</svg>
