<svg width="24" height="24" viewBox="0 0 24 24" fill="none" xmlns="http://www.w3.org/2000/svg">
<path d="M9.18337 20.9994L9.48337 21.3994C10.8334 23.1994 13.5334 23.1994 14.8834 21.3994L15.1834 20.9994M4.36619 15.549L4.46954 15.7621C5.13331 17.1305 6.52054 17.9994 8.04144 17.9994H16.2623C17.5656 17.9994 18.7785 17.3336 19.4783 16.234C20.4661 14.682 20.2045 12.6459 18.8564 11.3939L18.8125 11.3532C17.8972 10.5032 17.4466 9.26482 17.6015 8.02537L17.6662 7.50844C18.0318 4.58318 15.7509 1.99939 12.8029 1.99939H11.0999C8.15552 1.99939 5.87737 4.58003 6.24259 7.50173L6.32194 8.13658C6.46808 9.3057 6.04103 10.4735 5.17514 11.2725C3.99242 12.3639 3.66383 14.101 4.36619 15.549Z" stroke="#525B66" stroke-width="1.14286" stroke-linecap="round"/>
</svg>
