<svg width="18" height="20" viewBox="0 0 18 20" fill="none" xmlns="http://www.w3.org/2000/svg">
<path d="M14.5 5.99988C15.8807 5.99988 17 4.88058 17 3.49988C17 2.11917 15.8807 0.999878 14.5 0.999878C13.1193 0.999878 12 2.11917 12 3.49988C12 4.88058 13.1193 5.99988 14.5 5.99988Z" fill="#FCFCFC" stroke="#525B66" stroke-width="1.5" stroke-linejoin="round"/>
<path d="M3.5 12.5001C4.8807 12.5001 6 11.3808 6 10.0001C6 8.61942 4.8807 7.50012 3.5 7.50012C2.1193 7.50012 1 8.61942 1 10.0001C1 11.3808 2.1193 12.5001 3.5 12.5001Z" fill="#FCFCFC" stroke="#525B66" stroke-width="1.5" stroke-linejoin="round"/>
<path d="M12.0005 4.78711L5.66992 8.62256" stroke="#525B66" stroke-width="1.5" stroke-linecap="round" stroke-linejoin="round"/>
<path d="M5.66992 11.2819L12.3401 15.2234" stroke="#525B66" stroke-width="1.5" stroke-linecap="round" stroke-linejoin="round"/>
<path d="M14.5 13.9998C15.8807 13.9998 17 15.1191 17 16.4998C17 17.8805 15.8807 18.9998 14.5 18.9998C13.1193 18.9998 12 17.8805 12 16.4998C12 15.1191 13.1193 13.9998 14.5 13.9998Z" fill="#FCFCFC" stroke="#525B66" stroke-width="1.5" stroke-linejoin="round"/>
</svg>
