<svg width="20" height="20" viewBox="0 0 20 20" fill="none" xmlns="http://www.w3.org/2000/svg">
<path d="M10.0007 18.9666C9.09232 18.9666 8.19232 18.6999 7.48398 18.1749L3.90065 15.5C2.95065 14.7916 2.20898 13.3083 2.20898 12.1333V5.93328C2.20898 4.64995 3.15065 3.28328 4.35898 2.83328L8.51732 1.27495C9.34232 0.966618 10.6423 0.966618 11.4673 1.27495L15.6257 2.83328C16.834 3.28328 17.7757 4.64995 17.7757 5.93328V12.125C17.7757 13.3083 17.034 14.7833 16.084 15.4916L12.5007 18.1666C11.809 18.6999 10.909 18.9666 10.0007 18.9666ZM8.95898 2.44995L4.80065 4.00828C4.09232 4.27495 3.46732 5.17495 3.46732 5.94162V12.1333C3.46732 12.925 4.02565 14.0333 4.65065 14.5L8.23398 17.175C9.19232 17.8916 10.809 17.8916 11.7757 17.175L15.359 14.5C15.9923 14.025 16.5423 12.925 16.5423 12.1333V5.93328C16.5423 5.17495 15.9173 4.27495 15.209 3.99995L11.0507 2.44162C10.484 2.24162 9.51732 2.24162 8.95898 2.44995Z" fill="#525B66"/>
<path d="M8.88255 11.8583C8.72422 11.8583 8.56589 11.8 8.44089 11.675L7.09922 10.3333C6.85755 10.0917 6.85755 9.69168 7.09922 9.45002C7.34089 9.20835 7.74088 9.20835 7.98255 9.45002L8.88255 10.35L12.0242 7.20835C12.2659 6.96668 12.6659 6.96668 12.9076 7.20835C13.1492 7.45002 13.1492 7.85002 12.9076 8.09168L9.32422 11.675C9.19922 11.8 9.04088 11.8583 8.88255 11.8583Z" fill="#525B66"/>
</svg>
