<svg width="32" height="32" viewBox="0 0 32 32" fill="none" xmlns="http://www.w3.org/2000/svg">
<path fill-rule="evenodd" clip-rule="evenodd" d="M9.95301 1.58134C11.517 1.51159 12.0157 1.49609 15.9997 1.49609C19.9837 1.49609 20.4823 1.51289 22.045 1.58134C23.6077 1.6498 24.6743 1.89134 25.6077 2.24139C26.585 2.59918 27.4717 3.15847 28.205 3.8818C28.9517 4.59093 29.5277 5.44859 29.8957 6.39668C30.2583 7.30084 30.5063 8.33418 30.5783 9.84543C30.6503 11.3631 30.6663 11.8462 30.6663 15.7044C30.6663 19.5639 30.649 20.047 30.5783 21.5621C30.5077 23.0734 30.2583 24.1067 29.8957 25.0109C29.5277 25.9591 28.9507 26.8182 28.205 27.5283C27.4717 28.2517 26.585 28.8097 25.6077 29.1662C24.6743 29.5175 23.6077 29.7578 22.0477 29.8275C20.4823 29.8973 19.9837 29.9128 15.9997 29.9128C12.0157 29.9128 11.517 29.896 9.95301 29.8275C8.39301 29.7591 7.32634 29.5175 6.39301 29.1662C5.41424 28.8096 4.52743 28.2507 3.79434 27.5283C3.04818 26.8188 2.47076 25.9601 2.10234 25.0122C1.74101 24.108 1.49301 23.0747 1.42101 21.5634C1.34901 20.0457 1.33301 19.5626 1.33301 15.7044C1.33301 11.8449 1.35034 11.3618 1.42101 9.84801C1.49167 8.33418 1.74101 7.30084 2.10234 6.39668C2.4713 5.4487 3.04917 4.59004 3.79567 3.88051C4.52773 3.15782 5.41364 2.59846 6.39167 2.24139C7.32501 1.89134 8.39167 1.65109 9.95167 1.58134H9.95301ZM21.9263 4.13884C20.3797 4.07039 19.9157 4.05618 15.9997 4.05618C12.0837 4.05618 11.6197 4.07039 10.073 4.13884C8.64234 4.20214 7.86634 4.43334 7.34901 4.62839C6.66501 4.88672 6.17567 5.19284 5.66234 5.69014C5.17573 6.14874 4.80125 6.70704 4.56634 7.32409C4.36501 7.82526 4.12634 8.57701 4.06101 9.96297C3.99034 11.4613 3.97567 11.9108 3.97567 15.7044C3.97567 19.4981 3.99034 19.9476 4.06101 21.4459C4.12634 22.8318 4.36501 23.5836 4.56634 24.0848C4.80101 24.7009 5.17567 25.2602 5.66234 25.7187C6.13567 26.1902 6.71301 26.5531 7.34901 26.7805C7.86634 26.9755 8.64234 27.2067 10.073 27.27C11.6197 27.3385 12.0823 27.3527 15.9997 27.3527C19.917 27.3527 20.3797 27.3385 21.9263 27.27C23.357 27.2067 24.133 26.9755 24.6503 26.7805C25.3343 26.5221 25.8237 26.216 26.337 25.7187C26.8237 25.2602 27.1983 24.7009 27.433 24.0848C27.6343 23.5836 27.873 22.8318 27.9383 21.4459C28.009 19.9476 28.0237 19.4981 28.0237 15.7044C28.0237 11.9108 28.009 11.4613 27.9383 9.96297C27.873 8.57701 27.6343 7.82526 27.433 7.32409C27.1663 6.66147 26.8503 6.18743 26.337 5.69014C25.8636 5.21877 25.2873 4.85599 24.6503 4.62839C24.133 4.43334 23.357 4.20214 21.9263 4.13884ZM14.1263 20.0845C15.1726 20.5064 16.3375 20.5633 17.4222 20.2456C18.507 19.9278 19.4442 19.2551 20.0738 18.3423C20.7034 17.4295 20.9864 16.3333 20.8744 15.2409C20.7624 14.1484 20.2623 13.1275 19.4597 12.3526C18.948 11.8572 18.3293 11.4779 17.6481 11.2419C16.9669 11.006 16.2402 10.9193 15.5203 10.9881C14.8004 11.0568 14.1052 11.2794 13.4847 11.6397C12.8643 12 12.334 12.4891 11.9321 13.0718C11.5302 13.6545 11.2666 14.3163 11.1604 15.0095C11.0541 15.7027 11.1079 16.4101 11.3177 17.0807C11.5276 17.7514 11.8883 18.3686 12.374 18.888C12.8596 19.4074 13.4581 19.816 14.1263 20.0845ZM10.669 10.5403C11.369 9.86219 12.2001 9.32424 13.1147 8.95723C14.0294 8.59021 15.0097 8.40131 15.9997 8.40131C16.9897 8.40131 17.97 8.59021 18.8846 8.95723C19.7992 9.32424 20.6303 9.86219 21.3303 10.5403C22.0304 11.2185 22.5857 12.0236 22.9645 12.9096C23.3434 13.7957 23.5384 14.7454 23.5384 15.7044C23.5384 16.6635 23.3434 17.6132 22.9645 18.4992C22.5857 19.3853 22.0304 20.1904 21.3303 20.8685C19.9166 22.2381 17.9991 23.0075 15.9997 23.0075C14.0003 23.0075 12.0828 22.2381 10.669 20.8685C9.25523 19.4989 8.46097 17.6413 8.46097 15.7044C8.46097 13.7675 9.25523 11.9099 10.669 10.5403ZM25.2103 9.48893C25.3838 9.3304 25.5227 9.13977 25.6187 8.92831C25.7148 8.71686 25.7661 8.48888 25.7696 8.25788C25.773 8.02688 25.7286 7.79755 25.639 7.58347C25.5493 7.3694 25.4163 7.17492 25.2476 7.01156C25.079 6.8482 24.8782 6.71928 24.6573 6.63243C24.4363 6.54558 24.1996 6.50256 23.9611 6.50593C23.7226 6.5093 23.4873 6.55898 23.269 6.65204C23.0508 6.74509 22.854 6.87963 22.6903 7.04768C22.3721 7.37451 22.1978 7.80863 22.2046 8.25788C22.2114 8.70713 22.3986 9.13615 22.7265 9.45385C23.0545 9.77155 23.4974 9.95293 23.9611 9.95948C24.4248 9.96603 24.873 9.79724 25.2103 9.48893Z" fill="#FCFCFD"/>
</svg>
