<svg width="29" height="28" viewBox="0 0 29 28" fill="none" xmlns="http://www.w3.org/2000/svg">
<path d="M14.3327 19.5416C13.866 19.5416 13.3993 19.5066 12.956 19.425C10.4827 19.0633 8.23102 17.64 6.80768 15.5283C5.81602 14.035 5.29102 12.2966 5.29102 10.5C5.29102 5.51831 9.35102 1.45831 14.3327 1.45831C19.3143 1.45831 23.3743 5.51831 23.3743 10.5C23.3743 12.2966 22.8493 14.035 21.8577 15.5283C20.4227 17.6516 18.171 19.0633 15.6743 19.4367C15.266 19.5067 14.7993 19.5416 14.3327 19.5416ZM14.3327 3.20831C10.3077 3.20831 7.04102 6.47498 7.04102 10.5C7.04102 11.9583 7.46102 13.3583 8.25435 14.5483C9.40935 16.2516 11.2177 17.395 13.2243 17.6867C13.971 17.815 14.706 17.815 15.3943 17.6867C17.436 17.395 19.2443 16.24 20.3993 14.5366C21.1927 13.3466 21.6127 11.9466 21.6127 10.4883C21.6243 6.47497 18.3577 3.20831 14.3327 3.20831Z" fill="#011F46"/>
<path d="M7.88154 26.3549C7.7182 26.3549 7.56654 26.3316 7.4032 26.2966C6.64487 26.1216 6.06154 25.5382 5.88654 24.7799L5.4782 23.0649C5.45487 22.9599 5.3732 22.8782 5.25653 22.8432L3.33154 22.3883C2.6082 22.2133 2.03654 21.6766 1.8382 20.9649C1.63987 20.2533 1.8382 19.4833 2.3632 18.9583L6.9132 14.4083C7.09987 14.2216 7.35653 14.1283 7.6132 14.1516C7.86987 14.1749 8.1032 14.3149 8.25487 14.5366C9.40987 16.2399 11.2182 17.3949 13.2365 17.6866C13.9832 17.8149 14.7182 17.8149 15.4065 17.6866C17.4482 17.3949 19.2565 16.2399 20.4115 14.5366C20.5515 14.3149 20.7965 14.1749 21.0532 14.1516C21.3099 14.1283 21.5665 14.2216 21.7532 14.4083L26.3032 18.9583C26.8282 19.4833 27.0265 20.2533 26.8282 20.9649C26.6299 21.6766 26.0465 22.2249 25.3349 22.3883L23.4099 22.8432C23.3049 22.8666 23.2232 22.9482 23.1882 23.0649L22.7799 24.7799C22.6049 25.5382 22.0215 26.1216 21.2632 26.2966C20.5049 26.4833 19.7232 26.2149 19.2332 25.6199L14.3332 19.9849L9.4332 25.6316C9.03654 26.0983 8.47653 26.3549 7.88154 26.3549ZM7.4382 16.3683L3.59987 20.2066C3.49487 20.3116 3.50654 20.4283 3.52987 20.4983C3.54154 20.5566 3.59987 20.6732 3.73987 20.6966L5.66487 21.1516C6.4232 21.3266 7.00654 21.9099 7.18154 22.6682L7.58987 24.3832C7.62487 24.5349 7.74154 24.5816 7.81154 24.6049C7.88154 24.6166 7.9982 24.6283 8.1032 24.5116L12.5715 19.3666C10.5882 18.9816 8.7682 17.9199 7.4382 16.3683ZM16.0949 19.3549L20.5632 24.4882C20.6682 24.6166 20.7965 24.6166 20.8665 24.5932C20.9365 24.5816 21.0415 24.5233 21.0882 24.3716L21.4965 22.6566C21.6715 21.8983 22.2549 21.3149 23.0132 21.1399L24.9382 20.6849C25.0782 20.6499 25.1365 20.5449 25.1482 20.4866C25.1715 20.4283 25.1832 20.2999 25.0782 20.1949L21.2399 16.3566C19.8982 17.9082 18.0899 18.9699 16.0949 19.3549Z" fill="#011F46"/>
<path d="M16.538 15.0383C16.2347 15.0383 15.873 14.9567 15.4413 14.7L14.333 14.035L13.2247 14.6883C12.2097 15.295 11.5447 14.945 11.2997 14.77C11.0547 14.595 10.5297 14.07 10.798 12.915L11.078 11.7133L10.1447 10.85C9.63134 10.3366 9.44468 9.71832 9.61968 9.15832C9.79468 8.59832 10.308 8.20164 11.0313 8.08497L12.2797 7.87498L12.8747 6.56832C13.213 5.90332 13.738 5.52997 14.333 5.52997C14.928 5.52997 15.4647 5.915 15.7913 6.58L16.4797 7.95665L17.6347 8.09665C18.3463 8.21332 18.8597 8.60996 19.0463 9.16996C19.2213 9.72996 19.0347 10.3483 18.5213 10.8616L17.553 11.83L17.8563 12.915C18.1247 14.07 17.5997 14.595 17.3547 14.77C17.2263 14.875 16.9463 15.0383 16.538 15.0383ZM11.5447 9.78833L12.3497 10.5933C12.723 10.9666 12.9097 11.5967 12.793 12.11L12.5713 13.0433L13.5047 12.495C14.0063 12.2033 14.683 12.2033 15.173 12.495L16.1063 13.0433L15.8963 12.11C15.7797 11.585 15.9547 10.9666 16.328 10.5933L17.133 9.78833L16.118 9.6133C15.628 9.53163 15.138 9.16999 14.9163 8.72666L14.333 7.58331L13.7497 8.74998C13.5397 9.18165 13.0497 9.55499 12.5597 9.63666L11.5447 9.78833Z" fill="#011F46"/>
</svg>
