<svg width="29" height="28" viewBox="0 0 29 28" fill="none" xmlns="http://www.w3.org/2000/svg">
<path d="M23.157 13.7083H19.167C18.6887 13.7083 18.292 13.3116 18.292 12.8333V4.67831C18.292 3.81498 18.6303 3.00998 19.237 2.40331C19.8437 1.79665 20.6487 1.45831 21.512 1.45831H21.5237C22.982 1.46998 24.3586 2.04165 25.4086 3.07998C26.4586 4.14165 27.0303 5.54165 27.0303 6.99998V9.82331C27.042 12.145 25.4786 13.7083 23.157 13.7083ZM20.042 11.9583H23.157C24.5103 11.9583 25.292 11.1766 25.292 9.82331V6.99998C25.292 5.99665 24.8953 5.03998 24.1836 4.31665C23.472 3.61665 22.527 3.21998 21.5237 3.20831C21.5237 3.20831 21.5237 3.20831 21.512 3.20831C21.127 3.20831 20.7537 3.35998 20.4737 3.63998C20.1937 3.91998 20.042 4.28165 20.042 4.67831V11.9583Z" fill="#011F46"/>
<path d="M11.0007 27.2183C10.4524 27.2183 9.93904 27.0083 9.55404 26.6116L7.61733 24.6633C7.51233 24.5583 7.34905 24.5466 7.23238 24.64L5.23736 26.1333C4.61902 26.6 3.80234 26.6816 3.10234 26.3316C2.40234 25.9816 1.9707 25.2816 1.9707 24.5V6.99998C1.9707 3.47665 3.98904 1.45831 7.51237 1.45831H21.5124C21.9907 1.45831 22.3874 1.85498 22.3874 2.33331C22.3874 2.81165 21.9907 3.20831 21.5124 3.20831C20.7074 3.20831 20.054 3.86165 20.054 4.66665V24.5C20.054 25.2816 19.6223 25.9816 18.9223 26.3316C18.234 26.6816 17.4057 26.6 16.7874 26.1333L14.7924 24.64C14.6757 24.5466 14.5123 24.57 14.419 24.6633L12.459 26.6233C12.0624 27.0083 11.549 27.2183 11.0007 27.2183ZM7.39566 22.8316C7.93233 22.8316 8.45733 23.03 8.85399 23.4383L10.7907 25.3866C10.8607 25.4566 10.954 25.4683 11.0007 25.4683C11.0474 25.4683 11.1407 25.4566 11.2107 25.3866L13.1707 23.4266C13.894 22.7033 15.0374 22.6333 15.8424 23.2516L17.8257 24.7333C17.954 24.8266 18.0707 24.7916 18.129 24.7566C18.1873 24.7216 18.2924 24.6516 18.2924 24.5V4.66665C18.2924 4.14165 18.4207 3.63998 18.6423 3.20831H7.50069C4.91069 3.20831 3.70903 4.40998 3.70903 6.99998V24.5C3.70903 24.6633 3.81404 24.7333 3.87238 24.7683C3.94238 24.8033 4.05905 24.8266 4.17572 24.7333L6.17067 23.24C6.53234 22.9716 6.96399 22.8316 7.39566 22.8316Z" fill="#011F46"/>
<path d="M14.5 11.375H7.5C7.02167 11.375 6.625 10.9783 6.625 10.5C6.625 10.0217 7.02167 9.625 7.5 9.625H14.5C14.9783 9.625 15.375 10.0217 15.375 10.5C15.375 10.9783 14.9783 11.375 14.5 11.375Z" fill="#011F46"/>
<path d="M13.626 16.0417H8.37598C7.89764 16.0417 7.50098 15.6451 7.50098 15.1667C7.50098 14.6884 7.89764 14.2917 8.37598 14.2917H13.626C14.1043 14.2917 14.501 14.6884 14.501 15.1667C14.501 15.6451 14.1043 16.0417 13.626 16.0417Z" fill="#011F46"/>
</svg>
