<svg width="28" height="28" viewBox="0 0 28 28" fill="none" xmlns="http://www.w3.org/2000/svg">
<path d="M21.2213 20.7084H8.79633C7.64133 20.7084 6.533 20.2184 5.75133 19.3667C4.96967 18.515 4.57301 17.3717 4.66634 16.2167L5.63468 4.59671C5.66968 4.23504 5.54133 3.88505 5.29633 3.61671C5.05133 3.34838 4.713 3.20837 4.35134 3.20837H2.33301C1.85467 3.20837 1.45801 2.81171 1.45801 2.33337C1.45801 1.85504 1.85467 1.45837 2.33301 1.45837H4.36301C5.21468 1.45837 6.01967 1.82004 6.59133 2.43837C6.90633 2.78837 7.13967 3.19671 7.268 3.65171H21.8397C23.018 3.65171 24.103 4.11837 24.8963 4.95837C25.678 5.81004 26.0747 6.91838 25.9813 8.09671L25.3513 16.8467C25.223 18.9817 23.3563 20.7084 21.2213 20.7084ZM7.32634 5.39003L6.41634 16.3567C6.35801 17.0334 6.57967 17.675 7.03467 18.1767C7.48967 18.6784 8.11967 18.9467 8.79633 18.9467H21.2213C22.4347 18.9467 23.5313 17.92 23.6247 16.7067L24.2547 7.95672C24.3013 7.26838 24.0797 6.61505 23.6247 6.13672C23.1697 5.64672 22.5397 5.37836 21.8513 5.37836H7.32634V5.39003Z" fill="#01142F" fill-opacity="0.8"/>
<path d="M18.9583 26.5417C17.675 26.5417 16.625 25.4917 16.625 24.2083C16.625 22.925 17.675 21.875 18.9583 21.875C20.2417 21.875 21.2917 22.925 21.2917 24.2083C21.2917 25.4917 20.2417 26.5417 18.9583 26.5417ZM18.9583 23.625C18.6317 23.625 18.375 23.8817 18.375 24.2083C18.375 24.535 18.6317 24.7917 18.9583 24.7917C19.285 24.7917 19.5417 24.535 19.5417 24.2083C19.5417 23.8817 19.285 23.625 18.9583 23.625Z" fill="#01142F" fill-opacity="0.8"/>
<path d="M9.62533 26.5417C8.34199 26.5417 7.29199 25.4917 7.29199 24.2083C7.29199 22.925 8.34199 21.875 9.62533 21.875C10.9087 21.875 11.9587 22.925 11.9587 24.2083C11.9587 25.4917 10.9087 26.5417 9.62533 26.5417ZM9.62533 23.625C9.29866 23.625 9.04199 23.8817 9.04199 24.2083C9.04199 24.535 9.29866 24.7917 9.62533 24.7917C9.95199 24.7917 10.2087 24.535 10.2087 24.2083C10.2087 23.8817 9.95199 23.625 9.62533 23.625Z" fill="#01142F" fill-opacity="0.8"/>
<path d="M24.5 10.2084H10.5C10.0217 10.2084 9.625 9.81171 9.625 9.33337C9.625 8.85504 10.0217 8.45837 10.5 8.45837H24.5C24.9783 8.45837 25.375 8.85504 25.375 9.33337C25.375 9.81171 24.9783 10.2084 24.5 10.2084Z" fill="#01142F" fill-opacity="0.8"/>
</svg>
