<svg width="20" height="20" viewBox="0 0 20 20" fill="none" xmlns="http://www.w3.org/2000/svg">
<path d="M13.7414 18.9582H6.2497C4.81637 18.9582 3.74137 18.5748 3.0747 17.8165C2.40804 17.0582 2.1497 15.9582 2.3247 14.5332L3.0747 8.28317C3.29137 6.44151 3.75804 4.7915 7.00804 4.7915H13.008C16.2497 4.7915 16.7164 6.44151 16.9414 8.28317L17.6914 14.5332C17.858 15.9582 17.608 17.0665 16.9414 17.8165C16.2497 18.5748 15.183 18.9582 13.7414 18.9582ZM6.9997 6.0415C4.5997 6.0415 4.48303 6.99149 4.30803 8.42483L3.55804 14.6748C3.43304 15.7332 3.58303 16.5082 4.00803 16.9832C4.43303 17.4582 5.18303 17.6998 6.2497 17.6998H13.7414C14.808 17.6998 15.558 17.4582 15.983 16.9832C16.408 16.5082 16.558 15.7332 16.433 14.6748L15.683 8.42483C15.508 6.98316 15.3997 6.0415 12.9914 6.0415H6.9997Z" fill="#525B66"/>
<path d="M13.3332 7.2915C12.9915 7.2915 12.7082 7.00817 12.7082 6.6665V3.74984C12.7082 2.84984 12.1498 2.2915 11.2498 2.2915H8.74984C7.84984 2.2915 7.2915 2.84984 7.2915 3.74984V6.6665C7.2915 7.00817 7.00817 7.2915 6.6665 7.2915C6.32484 7.2915 6.0415 7.00817 6.0415 6.6665V3.74984C6.0415 2.15817 7.15817 1.0415 8.74984 1.0415H11.2498C12.8415 1.0415 13.9582 2.15817 13.9582 3.74984V6.6665C13.9582 7.00817 13.6748 7.2915 13.3332 7.2915Z" fill="#525B66"/>
<path d="M17.0082 14.8169H6.6665C6.32484 14.8169 6.0415 14.5336 6.0415 14.1919C6.0415 13.8502 6.32484 13.5669 6.6665 13.5669H17.0082C17.3498 13.5669 17.6332 13.8502 17.6332 14.1919C17.6332 14.5336 17.3498 14.8169 17.0082 14.8169Z" fill="#525B66"/>
</svg>
