<svg width="48" height="49" viewBox="0 0 48 49" fill="none" xmlns="http://www.w3.org/2000/svg">
<path d="M22.9318 31.0336L19.0235 34.5968C19.0235 34.5968 18.7179 34.8285 18.3837 34.6834L19.1321 28.0644L22.9318 31.0336Z" fill="#FCFCFD"/>
<path fill-rule="evenodd" clip-rule="evenodd" d="M24 0.204102C37.2549 0.204102 48 10.9492 48 24.2041C48 37.459 37.2549 48.2041 24 48.2041C10.7451 48.2041 0 37.459 0 24.2041C0 10.9492 10.7451 0.204102 24 0.204102ZM31.2697 34.9259L35.5515 13.3376C35.5515 11.9003 33.5756 12.7687 33.5756 12.7687L9.53192 22.2003C9.53192 22.2003 8.39417 22.5894 8.48403 23.3083C8.57374 24.0267 9.50196 24.3562 9.50196 24.3562L15.5502 26.3923L30.072 17.1701C30.072 17.1701 30.9103 16.6611 30.8805 17.1701C30.8805 17.1701 31.0302 17.2599 30.5811 17.679C30.1321 18.0982 19.1731 27.9491 19.1731 27.9491L29.0241 35.7041C30.6709 36.4229 31.2697 34.9259 31.2697 34.9259ZM19.0235 34.5968L22.9318 31.0336L19.1321 28.0644L18.3837 34.6834C18.7179 34.8285 19.0235 34.5968 19.0235 34.5968Z" fill="#DB5A27" fill-opacity="0.01"/>
<path d="M35.5515 13.3376L31.2697 34.9259C31.2697 34.9259 30.6709 36.4229 29.0241 35.7041L19.1731 27.9491C19.1731 27.9491 30.1321 18.0982 30.5811 17.679C31.0302 17.2599 30.8805 17.1701 30.8805 17.1701C30.9103 16.6611 30.072 17.1701 30.072 17.1701L15.5502 26.3923L9.50196 24.3562C9.50196 24.3562 8.57374 24.0267 8.48403 23.3083C8.39417 22.5894 9.53192 22.2003 9.53192 22.2003L33.5756 12.7687C33.5756 12.7687 35.5515 11.9003 35.5515 13.3376Z" fill="#FCFCFD"/>
</svg>
