<svg width="24" height="25" viewBox="0 0 24 25" fill="none" xmlns="http://www.w3.org/2000/svg">
<g id="vuesax/outline/send-2">
<g id="send-2">
<path id="Vector" d="M14.2199 22.1299C13.0399 22.1299 11.3699 21.2999 10.0499 17.3299L9.32988 15.1699L7.16988 14.4499C3.20988 13.1299 2.37988 11.4599 2.37988 10.2799C2.37988 9.10995 3.20988 7.42995 7.16988 6.09995L15.6599 3.26995C17.7799 2.55995 19.5499 2.76995 20.6399 3.84995C21.7299 4.92995 21.9399 6.70995 21.2299 8.82995L18.3999 17.3199C17.0699 21.2999 15.3999 22.1299 14.2199 22.1299ZM7.63988 7.52995C4.85988 8.45995 3.86988 9.55995 3.86988 10.2799C3.86988 10.9999 4.85988 12.0999 7.63988 13.0199L10.1599 13.8599C10.3799 13.9299 10.5599 14.1099 10.6299 14.3299L11.4699 16.8499C12.3899 19.6299 13.4999 20.6199 14.2199 20.6199C14.9399 20.6199 16.0399 19.6299 16.9699 16.8499L19.7999 8.35995C20.3099 6.81995 20.2199 5.55995 19.5699 4.90995C18.9199 4.25995 17.6599 4.17995 16.1299 4.68995L7.63988 7.52995Z" fill="#071B34" fill-opacity="0.8"/>
<path id="Vector_2" d="M10.1098 14.9C9.9198 14.9 9.7298 14.83 9.5798 14.68C9.2898 14.39 9.2898 13.91 9.5798 13.62L13.1598 10.03C13.4498 9.74 13.9298 9.74 14.2198 10.03C14.5098 10.32 14.5098 10.8 14.2198 11.09L10.6398 14.68C10.4998 14.83 10.2998 14.9 10.1098 14.9Z" fill="#071B34" fill-opacity="0.8"/>
</g>
</g>
</svg>
