<svg width="29" height="28" viewBox="0 0 29 28" fill="none" xmlns="http://www.w3.org/2000/svg">
<path d="M15.9988 17.2083H14.8321C14.3538 17.2083 13.9571 16.8116 13.9571 16.3333C13.9571 15.855 14.3538 15.4583 14.8321 15.4583H15.9988C16.8038 15.4583 17.4571 14.805 17.4571 14V3.20831H7.8321C6.45543 3.20831 5.1954 3.95496 4.51873 5.15663C4.2854 5.57663 3.74878 5.72834 3.32878 5.49501C2.90878 5.26167 2.75707 4.72498 2.9904 4.30498C3.9704 2.55498 5.82543 1.45831 7.8321 1.45831H18.3321C18.8104 1.45831 19.2071 1.85498 19.2071 2.33331V14C19.2071 15.7733 17.7721 17.2083 15.9988 17.2083Z" fill="#011F46"/>
<path d="M22.9993 24.2084H21.8327C21.3543 24.2084 20.9577 23.8117 20.9577 23.3334C20.9577 22.5284 20.3043 21.875 19.4993 21.875C18.6943 21.875 18.041 22.5284 18.041 23.3334C18.041 23.8117 17.6443 24.2084 17.166 24.2084H12.4993C12.021 24.2084 11.6243 23.8117 11.6243 23.3334C11.6243 22.5284 10.971 21.875 10.166 21.875C9.36101 21.875 8.70768 22.5284 8.70768 23.3334C8.70768 23.8117 8.31101 24.2084 7.83268 24.2084H6.66602C4.25102 24.2084 2.29102 22.2484 2.29102 19.8334C2.29102 19.355 2.68768 18.9584 3.16602 18.9584C3.64435 18.9584 4.04102 19.355 4.04102 19.8334C4.04102 21.28 5.21935 22.4584 6.66602 22.4584H7.07432C7.45932 21.1167 8.69601 20.125 10.166 20.125C11.636 20.125 12.8727 21.1167 13.2577 22.4584H16.4193C16.8043 21.1167 18.041 20.125 19.511 20.125C20.981 20.125 22.2176 21.1167 22.6026 22.4584H22.9993C24.446 22.4584 25.6243 21.28 25.6243 19.8334V17.2084H22.9993C21.8793 17.2084 20.9577 16.2867 20.9577 15.1667V11.6667C20.9577 10.5467 21.8677 9.62504 22.9993 9.62504L21.751 7.44338C21.4943 6.98838 21.0044 6.70837 20.4794 6.70837H19.2077V14C19.2077 15.7734 17.7727 17.2084 15.9993 17.2084H14.8327C14.3543 17.2084 13.9577 16.8117 13.9577 16.3334C13.9577 15.855 14.3543 15.4584 14.8327 15.4584H15.9993C16.8043 15.4584 17.4577 14.805 17.4577 14V5.83337C17.4577 5.35504 17.8543 4.95837 18.3327 4.95837H20.4794C21.6344 4.95837 22.696 5.57672 23.2677 6.58006L25.2627 10.0684C25.4143 10.3367 25.4143 10.675 25.2627 10.9434C25.111 11.2117 24.8193 11.375 24.5043 11.375H22.9993C22.836 11.375 22.7077 11.5034 22.7077 11.6667V15.1667C22.7077 15.33 22.836 15.4584 22.9993 15.4584H26.4993C26.9777 15.4584 27.3743 15.855 27.3743 16.3334V19.8334C27.3743 22.2484 25.4143 24.2084 22.9993 24.2084Z" fill="#011F46"/>
<path d="M10.1663 26.5417C8.39301 26.5417 6.95801 25.1067 6.95801 23.3333C6.95801 21.56 8.39301 20.125 10.1663 20.125C11.9397 20.125 13.3747 21.56 13.3747 23.3333C13.3747 25.1067 11.9397 26.5417 10.1663 26.5417ZM10.1663 21.875C9.36134 21.875 8.70801 22.5283 8.70801 23.3333C8.70801 24.1383 9.36134 24.7917 10.1663 24.7917C10.9713 24.7917 11.6247 24.1383 11.6247 23.3333C11.6247 22.5283 10.9713 21.875 10.1663 21.875Z" fill="#011F46"/>
<path d="M19.5003 26.5417C17.727 26.5417 16.292 25.1067 16.292 23.3333C16.292 21.56 17.727 20.125 19.5003 20.125C21.2737 20.125 22.7087 21.56 22.7087 23.3333C22.7087 25.1067 21.2737 26.5417 19.5003 26.5417ZM19.5003 21.875C18.6953 21.875 18.042 22.5283 18.042 23.3333C18.042 24.1383 18.6953 24.7917 19.5003 24.7917C20.3053 24.7917 20.9587 24.1383 20.9587 23.3333C20.9587 22.5283 20.3053 21.875 19.5003 21.875Z" fill="#011F46"/>
<path d="M26.4997 17.2083H22.9997C21.8797 17.2083 20.958 16.2867 20.958 15.1667V11.6667C20.958 10.5467 21.8797 9.625 22.9997 9.625H24.5046C24.8196 9.625 25.1113 9.78834 25.263 10.0683L27.258 13.5683C27.328 13.6967 27.3747 13.8483 27.3747 14V16.3333C27.3747 16.8117 26.978 17.2083 26.4997 17.2083ZM22.9997 11.375C22.8363 11.375 22.708 11.5033 22.708 11.6667V15.1667C22.708 15.33 22.8363 15.4583 22.9997 15.4583H25.6247V14.2333L23.9913 11.375H22.9997Z" fill="#011F46"/>
<path d="M10.166 10.2084H3.16602C2.68768 10.2084 2.29102 9.81171 2.29102 9.33337C2.29102 8.85504 2.68768 8.45837 3.16602 8.45837H10.166C10.6443 8.45837 11.041 8.85504 11.041 9.33337C11.041 9.81171 10.6443 10.2084 10.166 10.2084Z" fill="#011F46"/>
<path d="M7.83268 13.7083H3.16602C2.68768 13.7083 2.29102 13.3116 2.29102 12.8333C2.29102 12.355 2.68768 11.9583 3.16602 11.9583H7.83268C8.31102 11.9583 8.70768 12.355 8.70768 12.8333C8.70768 13.3116 8.31102 13.7083 7.83268 13.7083Z" fill="#011F46"/>
<path d="M5.49935 17.2083H3.16602C2.68768 17.2083 2.29102 16.8116 2.29102 16.3333C2.29102 15.855 2.68768 15.4583 3.16602 15.4583H5.49935C5.97768 15.4583 6.37435 15.855 6.37435 16.3333C6.37435 16.8116 5.97768 17.2083 5.49935 17.2083Z" fill="#011F46"/>
</svg>
