<svg width="24" height="25" viewBox="0 0 24 25" fill="none" xmlns="http://www.w3.org/2000/svg">
<g id="vuesax/outline/whatsapp">
<g id="whatsapp">
<path id="Vector" d="M2.00014 23.25C1.80014 23.25 1.61011 23.17 1.47011 23.03C1.28011 22.84 1.20016 22.56 1.27016 22.3L2.53017 17.59C1.69017 16.03 1.25014 14.27 1.25014 12.49C1.25014 6.55999 6.07014 1.73999 12.0001 1.73999C17.9301 1.73999 22.7501 6.55999 22.7501 12.49C22.7501 18.42 17.9301 23.24 12.0001 23.24C10.1901 23.24 8.42017 22.79 6.84017 21.93L2.20015 23.22C2.13015 23.24 2.07014 23.25 2.00014 23.25ZM6.94014 20.38C7.07014 20.38 7.20015 20.42 7.32015 20.48C8.73015 21.31 10.3501 21.75 12.0001 21.75C17.1001 21.75 21.2501 17.6 21.2501 12.5C21.2501 7.4 17.1001 3.25 12.0001 3.25C6.90014 3.25 2.75014 7.4 2.75014 12.5C2.75014 14.13 3.18013 15.72 3.99013 17.12C4.09013 17.29 4.12015 17.5 4.07015 17.69L3.07015 21.43L6.75014 20.41C6.81014 20.39 6.88014 20.38 6.94014 20.38Z" fill="#071B34" fill-opacity="0.8"/>
<path id="Vector_2" d="M14.7402 18.2601C14.1202 18.2601 13.4802 18.12 12.8102 17.83C12.1802 17.56 11.5502 17.2 10.9402 16.75C10.3402 16.31 9.75027 15.81 9.21027 15.27C8.67027 14.72 8.17022 14.1401 7.73022 13.5401C7.28022 12.9101 6.92022 12.29 6.66022 11.68C6.38022 11.02 6.24023 10.37 6.24023 9.75004C6.24023 9.31004 6.32021 8.89004 6.47021 8.50004C6.63021 8.09004 6.89022 7.72004 7.23022 7.40004C7.87022 6.77004 8.79026 6.54006 9.52026 6.89006C9.77026 7.00006 9.98026 7.18006 10.1403 7.42006L11.3002 9.05003C11.4202 9.21003 11.5103 9.38003 11.5803 9.55003C11.6603 9.75003 11.7103 9.95006 11.7103 10.1401C11.7103 10.4001 11.6402 10.6601 11.5002 10.8901C11.4102 11.0401 11.2802 11.2201 11.1102 11.3901L10.9802 11.53C11.0402 11.61 11.1102 11.71 11.2202 11.83C11.4302 12.07 11.6602 12.33 11.9102 12.58C12.1602 12.82 12.4102 13.06 12.6602 13.27C12.7802 13.37 12.8803 13.45 12.9603 13.5L13.1002 13.36C13.2802 13.18 13.4603 13.0401 13.6403 12.9501C13.9703 12.7401 14.4802 12.69 14.9302 12.88C15.0902 12.94 15.2502 13.03 15.4202 13.15L17.0903 14.33C17.3203 14.49 17.5002 14.71 17.6202 14.96C17.7202 15.21 17.7603 15.43 17.7603 15.66C17.7603 15.96 17.6902 16.25 17.5602 16.53C17.4302 16.79 17.2802 17.0201 17.1002 17.2301C16.7802 17.5801 16.4103 17.8401 16.0103 18.0101C15.6103 18.1801 15.1802 18.2601 14.7402 18.2601ZM8.79022 8.24003C8.73022 8.24003 8.53027 8.24003 8.28027 8.49003C8.09027 8.67003 7.96024 8.86005 7.87024 9.07005C7.78024 9.28005 7.74023 9.52005 7.74023 9.76005C7.74023 10.1801 7.84022 10.63 8.04022 11.11C8.25022 11.61 8.56025 12.1401 8.94025 12.6701C9.33025 13.2001 9.77025 13.73 10.2603 14.22C10.7503 14.7 11.2702 15.15 11.8102 15.55C12.3302 15.93 12.8603 16.23 13.3903 16.46C14.1503 16.79 14.8502 16.87 15.4202 16.63C15.6202 16.55 15.8002 16.4101 15.9802 16.2301C16.0702 16.1301 16.1403 16.03 16.2003 15.9C16.2303 15.83 16.2502 15.75 16.2502 15.68C16.2502 15.66 16.2502 15.63 16.2202 15.57L14.5502 14.41C14.4802 14.36 14.4102 14.32 14.3502 14.3C14.3102 14.32 14.2503 14.35 14.1403 14.46L13.7603 14.84C13.4703 15.13 13.0103 15.21 12.6403 15.08L12.4603 15C12.2303 14.88 11.9702 14.7001 11.6802 14.4501C11.4002 14.2101 11.1303 13.96 10.8403 13.68C10.5603 13.39 10.3103 13.12 10.0703 12.84C9.81025 12.53 9.63025 12.28 9.51025 12.07L9.40027 11.81C9.37027 11.71 9.36023 11.6 9.36023 11.5C9.36023 11.22 9.46027 10.97 9.65027 10.77L10.0303 10.38C10.1403 10.27 10.1803 10.2101 10.2003 10.1701C10.1703 10.1001 10.1303 10.04 10.0803 9.97004L8.91022 8.32005L8.79022 8.24003Z" fill="#071B34" fill-opacity="0.8"/>
</g>
</g>
</svg>
