<svg width="32" height="33" viewBox="0 0 32 33" fill="none" xmlns="http://www.w3.org/2000/svg">
<path d="M2.66685 30.5374C2.40018 30.5374 2.14681 30.4308 1.96015 30.2441C1.70681 29.9908 1.60021 29.6174 1.69354 29.2708L3.37356 22.9908C2.25356 20.9108 1.66685 18.5641 1.66685 16.1908C1.66685 8.28409 8.09352 1.85742 16.0002 1.85742C23.9069 1.85742 30.3335 8.28409 30.3335 16.1908C30.3335 24.0974 23.9069 30.5241 16.0002 30.5241C13.5869 30.5241 11.2269 29.9241 9.12022 28.7774L2.93353 30.4974C2.8402 30.5241 2.76018 30.5374 2.66685 30.5374ZM9.25352 26.7108C9.42685 26.7108 9.60019 26.7641 9.76019 26.8441C11.6402 27.9508 13.8002 28.5374 16.0002 28.5374C22.8002 28.5374 28.3335 23.0041 28.3335 16.2041C28.3335 9.4041 22.8002 3.87077 16.0002 3.87077C9.20018 3.87077 3.66685 9.4041 3.66685 16.2041C3.66685 18.3774 4.24017 20.4974 5.32017 22.3641C5.4535 22.5908 5.49353 22.8708 5.42686 23.1241L4.09353 28.1108L9.00018 26.7508C9.08018 26.7241 9.17352 26.7108 9.25352 26.7108Z" fill="#FCFCFD"/>
<path d="M19.6536 23.8842C18.827 23.8842 17.9737 23.6975 17.0803 23.3108C16.2403 22.9508 15.4003 22.4708 14.587 21.8708C13.787 21.2842 13.0004 20.6175 12.2804 19.8975C11.5604 19.1641 10.8936 18.3908 10.307 17.5908C9.70697 16.7508 9.22696 15.9241 8.88029 15.1108C8.50696 14.2308 8.32031 13.3642 8.32031 12.5375C8.32031 11.9508 8.42695 11.3908 8.62695 10.8708C8.84029 10.3242 9.18697 9.83082 9.6403 9.40415C10.4936 8.56415 11.7204 8.25751 12.6937 8.72418C13.027 8.87084 13.307 9.11084 13.5203 9.43084L15.067 11.6041C15.227 11.8175 15.347 12.0441 15.4403 12.2708C15.547 12.5375 15.6137 12.8042 15.6137 13.0575C15.6137 13.4042 15.5203 13.7508 15.3337 14.0575C15.2137 14.2575 15.0403 14.4975 14.8136 14.7242L14.6403 14.9108C14.7203 15.0175 14.8136 15.1508 14.9603 15.3108C15.2403 15.6308 15.547 15.9775 15.8803 16.3108C16.2136 16.6308 16.547 16.9508 16.8803 17.2308C17.0403 17.3641 17.1737 17.4708 17.2804 17.5375L17.467 17.3508C17.707 17.1108 17.947 16.9242 18.187 16.8042C18.627 16.5242 19.307 16.4575 19.907 16.7108C20.1203 16.7908 20.3336 16.9108 20.5603 17.0708L22.787 18.6441C23.0937 18.8575 23.3337 19.1508 23.4937 19.4841C23.627 19.8175 23.6803 20.1108 23.6803 20.4175C23.6803 20.8175 23.587 21.2042 23.4137 21.5775C23.2403 21.9242 23.0403 22.2308 22.8003 22.5108C22.3736 22.9775 21.8803 23.3242 21.347 23.5508C20.8137 23.7775 20.2403 23.8842 19.6536 23.8842ZM11.7203 10.5241C11.6403 10.5241 11.3737 10.5241 11.0404 10.8575C10.787 11.0975 10.6137 11.3508 10.4937 11.6308C10.3737 11.9108 10.3203 12.2308 10.3203 12.5508C10.3203 13.1108 10.4536 13.7108 10.7203 14.3508C11.0003 15.0175 11.4137 15.7242 11.9203 16.4308C12.4403 17.1375 13.027 17.8442 13.6803 18.4975C14.3337 19.1375 15.027 19.7375 15.747 20.2708C16.4403 20.7775 17.147 21.1775 17.8537 21.4841C18.867 21.9241 19.8003 22.0308 20.5603 21.7108C20.827 21.6042 21.067 21.4175 21.307 21.1775C21.427 21.0442 21.5203 20.9108 21.6003 20.7375C21.6403 20.6441 21.667 20.5375 21.667 20.4441C21.667 20.4175 21.667 20.3775 21.627 20.2975L19.4003 18.7508C19.307 18.6842 19.2136 18.6308 19.1336 18.6041C19.0803 18.6308 19.0003 18.6708 18.8537 18.8175L18.347 19.3242C17.9603 19.7108 17.347 19.8175 16.8537 19.6441L16.6137 19.5375C16.307 19.3775 15.9603 19.1375 15.5736 18.8042C15.2003 18.4842 14.8404 18.1508 14.4537 17.7775C14.0804 17.3908 13.747 17.0308 13.427 16.6575C13.0803 16.2442 12.8403 15.9108 12.6803 15.6308L12.5337 15.2842C12.4937 15.1508 12.4803 15.0042 12.4803 14.8708C12.4803 14.4975 12.6137 14.1641 12.867 13.8975L13.3737 13.3775C13.5204 13.2308 13.5737 13.1508 13.6003 13.0975C13.5603 13.0042 13.507 12.9242 13.4403 12.8308L11.8803 10.6308L11.7203 10.5241Z" fill="#FCFCFD"/>
</svg>
